REM MD5 d56d57618f60cf2311694ad670a38fa9
FILE "Batman & Robin (Europe) (En,Fr,De,Es).bin" BINARY
  TRACK 01 MODE2/2352
    INDEX 01 00:00:00
  TRACK 02 AUDIO
    INDEX 00 47:34:00
    INDEX 01 47:36:00
  TRACK 03 AUDIO
    INDEX 00 48:54:54
    INDEX 01 48:56:54
REM LEADOUT 51:57:04
